<svg xmlns="http://www.w3.org/2000/svg" data-name="Layer 2" viewBox="0 0 48 48"><path d="M30.877 32.005a3.4 3.4 0 0 0-1.743-.355 3.072 3.072 0 0 0-.95.25l3.039 1.227a29.512 29.512 0 0 0-2.454 3.386A12.315 12.315 0 0 0 27.5 39.156a5.219 5.219 0 0 0-.321 2.324c1.45-.324 2.984-1.92 3.975-3.83a7.353 7.353 0 0 0 .978-4.018A2.218 2.218 0 0 0 30.877 32.005zM10.372 16.634v4.915L27.235 27.56h.01a33.269 33.269 0 0 0 3.861-.22c3.287-.48 5.416-1.4 5.416-2.368v-8.1L26.17 20.38z"/><polygon points="22.32 6.46 0 12.575 10.372 15.027 26.097 18.753 36.522 15.226 48 11.333 22.32 6.46"/><path d="M25.7,39.768c.021-.1.042-.219.062-.344s.063-.271.115-.417l.032-.094A15.359,15.359,0,0,1,27.433,35.7a16.88,16.88,0,0,1,1.252-1.826.419.419,0,0,0,.042-.063l-2.056-.824a7.6,7.6,0,0,0-1.221,1.7,13.808,13.808,0,0,0-1.114,2.423L.532,26.5l-.146.637c-.2.981-.146,2.024.491,2.285L25.983,41.375C25.638,41.114,25.555,40.54,25.7,39.768Z"/><polygon points=".045 24.569 .047 24.565 .041 24.562 .045 24.569"/><path d="M24.058 33.967c1.418-2.731 3.907-4.3 5.823-3.791l-.075-.028L3.581 20.786c-.975-.415-2.372.689-3.141 2.5a6.193 6.193 0 0 0-.393 1.28L23.579 35.052A9.347 9.347 0 0 1 24.058 33.967zM45.256 17.646V13.921l-1.566.522v3.2a1.881 1.881 0 0 0-1.116 1.722v1.325a1.894 1.894 0 1 0 3.788 0V19.368A1.872 1.872 0 0 0 45.256 17.646z"/></svg>