<svg xmlns="http://www.w3.org/2000/svg" width="200" height="200"><path fill="#5E889E" d="M157.009 117.575c-.543-2.392-1.868-4.648-3.954-6.473-2.103-1.813-4.665-2.907-7.323-3.307l-42.74-8.271 12.364 8.205-19.521 61.195-10.993-45.457-10.996 45.457L54.33 107.73l12.362-8.205-42.743 8.271c-2.656.399-5.221 1.494-7.321 3.307-2.088 1.824-3.413 4.081-3.956 6.473L0 173.235l23.901 8.298c7.942 8.247 30.154 14.316 56.797 14.893h8.283c26.646-.576 48.858-6.646 56.796-14.893l23.905-8.298-12.673-55.66z"/><path fill="#5E889E" d="m84.841 105.735-9.854 3.53 9.854 14.204 9.852-14.204zM121.418 50.925c0-25.262-10.394-45.06-36.577-45.06-26.186 0-36.579 19.798-36.579 45.06-2.738 1.43-4.535 4.782-1.848 11.967 1.358 3.609 3.75 6.632 5.777 8.214 7.461 18.578 22.137 32.921 32.65 32.921 10.508 0 25.186-14.344 32.646-32.921 2.031-1.582 4.42-4.604 5.776-8.214 2.693-7.185.895-10.538-1.845-11.967zm25.931-9.94h-19.424c.125 1.104.231 2.222.315 3.365h19.108v-3.365zm39.277-11.6h-61.013c.328 1.095.614 2.224.886 3.367h60.127v-3.367z"/><path fill="#5E889E" d="M197.701 5.875a7.841 7.841 0 0 0-5.556-2.301h-86.454a36.867 36.867 0 0 1 10.159 7.856h76.295v54.99H171.12l-15.915 15.917V66.42h-25.759c-1.237 2.901-3.004 5.645-5.041 7.858h22.943v21.606c0 .878.521 1.714 1.384 2.073a2.24 2.24 0 0 0 2.447-.487l23.195-23.193h17.771a7.837 7.837 0 0 0 5.556-2.303A7.828 7.828 0 0 0 200 66.419V11.43a7.832 7.832 0 0 0-2.299-5.555z"/><path fill="#5E889E" d="M186.626 17.79h-66.063a45.35 45.35 0 0 1 1.844 3.367h64.219V17.79z"/></svg>