<svg xmlns="http://www.w3.org/2000/svg" viewBox="0 0 64 64"><g data-name="Layer 2"><path d="M48 3H16a5 5 0 0 0-5 5v17a5 5 0 0 0 5 5h32a5 5 0 0 0 5-5V8a5 5 0 0 0-5-5zM19 28v-3a3 3 0 0 1 3-3h6a3 3 0 0 1 3 3v3zm32-3a3 3 0 0 1-3 3H33v-3a5 5 0 0 0-5-5h-6a5 5 0 0 0-5 5v3h-1a3 3 0 0 1-3-3V8a3 3 0 0 1 3-3h32a3 3 0 0 1 3 3zM16 49h-6a5 5 0 0 0-5 5v6a1 1 0 0 0 1 1h14a1 1 0 0 0 1-1v-6a5 5 0 0 0-5-5zm3 10H7v-5a3 3 0 0 1 3-3h6a3 3 0 0 1 3 3zM8 42a5 5 0 1 0 5-5 5 5 0 0 0-5 5zm5-3a3 3 0 1 1-3 3 3 3 0 0 1 3-3zm41 10h-6a5 5 0 0 0-5 5v6a1 1 0 0 0 1 1h14a1 1 0 0 0 1-1v-6a5 5 0 0 0-5-5zm3 10H45v-5a3 3 0 0 1 3-3h6a3 3 0 0 1 3 3zM46 42a5 5 0 1 0 5-5 5 5 0 0 0-5 5zm8 0a3 3 0 1 1-3-3 3 3 0 0 1 3 3zm-19 7h-6a5 5 0 0 0-5 5v6a1 1 0 0 0 1 1h14a1 1 0 0 0 1-1v-6a5 5 0 0 0-5-5zm3 10H26v-5a3 3 0 0 1 3-3h6a3 3 0 0 1 3 3zM27 42a5 5 0 1 0 5-5 5 5 0 0 0-5 5zm8 0a3 3 0 1 1-3-3 3 3 0 0 1 3 3z"/><path d="M25 8a5 5 0 1 0 5 5 5 5 0 0 0-5-5Zm0 8a3 3 0 1 1 3-3 3 3 0 0 1-3 3ZM35 11h12v2H35zM35 19h12v2H35zM35 15h8v2h-8z"/></g></svg>