<svg xmlns="http://www.w3.org/2000/svg" viewBox="0 0 148.86 92.56"><defs><style>.cls-1{fill:gray;}.cls-2{fill:burlywood;}</style></defs><g id="Layer_2" data-name="Layer 2"><g id="Layer_1-2" data-name="Layer 1"><g id="logo"><path class="cls-1" d="M89,89.12A32.41,32.41,0,0,1,76.36,79.3l11.7-14q7.41,10,16.9,10,12.87,0,12.87-15.08V16.9h-32V0h52.91V59q0,16.77-8.32,25.15T106,92.56A41.3,41.3,0,0,1,89,89.12ZM60.38,4A31.23,31.23,0,0,1,74.1,15.47,31.49,31.49,0,0,1,78.91,33,31.53,31.53,0,0,1,74.1,50.5,30.67,30.67,0,0,1,60.38,62q-8.9,4-21,4H21.06V91H0V0H39.39Q51.48,0,60.38,4ZM52.65,44.66c3.29-2.74,4.94-6.61,4.94-11.64s-1.65-9-4.94-11.77-8.1-4.09-14.43-4.09H21.06V48.75H38.22Q47.72,48.75,52.65,44.66Z"/><path class="cls-2" d="M70.15,4A31.23,31.23,0,0,1,83.87,15.47,31.57,31.57,0,0,1,88.68,33,31.61,31.61,0,0,1,83.87,50.5,30.67,30.67,0,0,1,70.15,62q-8.91,4-21,4H30.83V91H9.77V0H49.16Q61.25,0,70.15,4ZM62.42,44.66c3.29-2.74,4.94-6.61,4.94-11.64s-1.65-9-4.94-11.77S54.31,17.16,48,17.16H30.83V48.75H48Q57.47,48.75,62.42,44.66ZM99.14,89.12A32.48,32.48,0,0,1,86.46,79.3l11.71-14q7.39,10,16.89,10,12.89,0,12.88-15.08V16.9H96V0h52.9V59q0,16.77-8.32,25.15T116.1,92.56A41.33,41.33,0,0,1,99.14,89.12Z"/></g></g></g></svg>